<mxfile host="app.diagrams.net" agent="Mozilla/5.0 (Windows NT 10.0; Win64; x64) AppleWebKit/537.36 (KHTML, like Gecko) Chrome/138.0.0.0 Safari/537.36 Edg/138.0.0.0" version="27.2.0">
  <diagram name="Page-1" id="Nlg96sPs2__64yxKFebv">
    <mxGraphModel dx="3435" dy="2525" grid="1" gridSize="10" guides="1" tooltips="1" connect="1" arrows="1" fold="1" page="1" pageScale="1" pageWidth="850" pageHeight="1100" math="0" shadow="0">
      <root>
        <mxCell id="0" />
        <mxCell id="1" parent="0" />
        <mxCell id="-0kq6au3n69eAczguCzb-8" value="" style="edgeStyle=orthogonalEdgeStyle;rounded=0;orthogonalLoop=1;jettySize=auto;html=1;" parent="1" source="-0kq6au3n69eAczguCzb-3" target="-0kq6au3n69eAczguCzb-4" edge="1">
          <mxGeometry relative="1" as="geometry" />
        </mxCell>
        <mxCell id="kddxn9xaWUX6taKfsctK-79" style="edgeStyle=orthogonalEdgeStyle;rounded=0;orthogonalLoop=1;jettySize=auto;html=1;entryX=0.5;entryY=1;entryDx=0;entryDy=0;" parent="1" source="-0kq6au3n69eAczguCzb-3" target="kddxn9xaWUX6taKfsctK-78" edge="1">
          <mxGeometry relative="1" as="geometry" />
        </mxCell>
        <mxCell id="kddxn9xaWUX6taKfsctK-96" style="edgeStyle=orthogonalEdgeStyle;rounded=0;orthogonalLoop=1;jettySize=auto;html=1;entryX=0.5;entryY=1;entryDx=0;entryDy=0;" parent="1" source="-0kq6au3n69eAczguCzb-3" target="kddxn9xaWUX6taKfsctK-95" edge="1">
          <mxGeometry relative="1" as="geometry" />
        </mxCell>
        <mxCell id="-0kq6au3n69eAczguCzb-3" value="Faculty" style="rounded=1;whiteSpace=wrap;html=1;" parent="1" vertex="1">
          <mxGeometry x="-50" y="120" width="100" height="40" as="geometry" />
        </mxCell>
        <mxCell id="-0kq6au3n69eAczguCzb-4" value="name" style="ellipse;whiteSpace=wrap;html=1;" parent="1" vertex="1">
          <mxGeometry x="-90" y="-50" width="60" height="40" as="geometry" />
        </mxCell>
        <mxCell id="-0kq6au3n69eAczguCzb-10" value="name" style="ellipse;whiteSpace=wrap;html=1;" parent="1" vertex="1">
          <mxGeometry x="-80" y="620" width="60" height="40" as="geometry" />
        </mxCell>
        <mxCell id="kddxn9xaWUX6taKfsctK-4" value="" style="edgeStyle=orthogonalEdgeStyle;rounded=0;orthogonalLoop=1;jettySize=auto;html=1;" parent="1" source="-0kq6au3n69eAczguCzb-13" target="kddxn9xaWUX6taKfsctK-3" edge="1">
          <mxGeometry relative="1" as="geometry" />
        </mxCell>
        <mxCell id="kddxn9xaWUX6taKfsctK-124" style="edgeStyle=orthogonalEdgeStyle;rounded=0;orthogonalLoop=1;jettySize=auto;html=1;entryX=0.5;entryY=1;entryDx=0;entryDy=0;" parent="1" source="-0kq6au3n69eAczguCzb-13" target="kddxn9xaWUX6taKfsctK-123" edge="1">
          <mxGeometry relative="1" as="geometry" />
        </mxCell>
        <mxCell id="kddxn9xaWUX6taKfsctK-159" style="edgeStyle=orthogonalEdgeStyle;rounded=0;orthogonalLoop=1;jettySize=auto;html=1;entryX=0.5;entryY=1;entryDx=0;entryDy=0;" parent="1" source="-0kq6au3n69eAczguCzb-13" target="kddxn9xaWUX6taKfsctK-158" edge="1">
          <mxGeometry relative="1" as="geometry" />
        </mxCell>
        <mxCell id="-0kq6au3n69eAczguCzb-13" value="department" style="rounded=1;whiteSpace=wrap;html=1;" parent="1" vertex="1">
          <mxGeometry x="370" y="120" width="105" height="40" as="geometry" />
        </mxCell>
        <mxCell id="kddxn9xaWUX6taKfsctK-85" style="edgeStyle=orthogonalEdgeStyle;rounded=0;orthogonalLoop=1;jettySize=auto;html=1;entryX=0.5;entryY=1;entryDx=0;entryDy=0;" parent="1" source="-0kq6au3n69eAczguCzb-14" target="kddxn9xaWUX6taKfsctK-82" edge="1">
          <mxGeometry relative="1" as="geometry" />
        </mxCell>
        <mxCell id="kddxn9xaWUX6taKfsctK-161" style="edgeStyle=orthogonalEdgeStyle;rounded=0;orthogonalLoop=1;jettySize=auto;html=1;entryX=0.5;entryY=1;entryDx=0;entryDy=0;" parent="1" source="-0kq6au3n69eAczguCzb-14" target="kddxn9xaWUX6taKfsctK-160" edge="1">
          <mxGeometry relative="1" as="geometry" />
        </mxCell>
        <mxCell id="kddxn9xaWUX6taKfsctK-246" style="edgeStyle=orthogonalEdgeStyle;rounded=0;orthogonalLoop=1;jettySize=auto;html=1;entryX=0.5;entryY=1;entryDx=0;entryDy=0;" parent="1" source="-0kq6au3n69eAczguCzb-14" target="kddxn9xaWUX6taKfsctK-245" edge="1">
          <mxGeometry relative="1" as="geometry" />
        </mxCell>
        <mxCell id="-0kq6au3n69eAczguCzb-14" value="course" style="rounded=1;whiteSpace=wrap;html=1;" parent="1" vertex="1">
          <mxGeometry x="840.5" y="120" width="100" height="40" as="geometry" />
        </mxCell>
        <mxCell id="kddxn9xaWUX6taKfsctK-5" value="" style="edgeStyle=orthogonalEdgeStyle;rounded=0;orthogonalLoop=1;jettySize=auto;html=1;" parent="1" source="-0kq6au3n69eAczguCzb-15" target="-0kq6au3n69eAczguCzb-41" edge="1">
          <mxGeometry relative="1" as="geometry" />
        </mxCell>
        <mxCell id="kddxn9xaWUX6taKfsctK-91" style="edgeStyle=orthogonalEdgeStyle;rounded=0;orthogonalLoop=1;jettySize=auto;html=1;" parent="1" source="-0kq6au3n69eAczguCzb-15" target="kddxn9xaWUX6taKfsctK-90" edge="1">
          <mxGeometry relative="1" as="geometry">
            <Array as="points">
              <mxPoint x="423" y="720" />
              <mxPoint x="370" y="720" />
            </Array>
          </mxGeometry>
        </mxCell>
        <mxCell id="kddxn9xaWUX6taKfsctK-287" style="edgeStyle=orthogonalEdgeStyle;rounded=0;orthogonalLoop=1;jettySize=auto;html=1;entryX=0.5;entryY=0;entryDx=0;entryDy=0;" parent="1" source="-0kq6au3n69eAczguCzb-15" target="kddxn9xaWUX6taKfsctK-286" edge="1">
          <mxGeometry relative="1" as="geometry">
            <Array as="points">
              <mxPoint x="423" y="720" />
              <mxPoint x="498" y="720" />
            </Array>
          </mxGeometry>
        </mxCell>
        <mxCell id="-0kq6au3n69eAczguCzb-15" value="professor" style="rounded=1;whiteSpace=wrap;html=1;" parent="1" vertex="1">
          <mxGeometry x="367.5" y="530" width="110" height="40" as="geometry" />
        </mxCell>
        <mxCell id="-0kq6au3n69eAczguCzb-37" style="edgeStyle=orthogonalEdgeStyle;rounded=0;orthogonalLoop=1;jettySize=auto;html=1;entryX=0.5;entryY=0;entryDx=0;entryDy=0;" parent="1" source="-0kq6au3n69eAczguCzb-16" target="-0kq6au3n69eAczguCzb-35" edge="1">
          <mxGeometry relative="1" as="geometry" />
        </mxCell>
        <mxCell id="kddxn9xaWUX6taKfsctK-87" style="edgeStyle=orthogonalEdgeStyle;rounded=0;orthogonalLoop=1;jettySize=auto;html=1;" parent="1" source="-0kq6au3n69eAczguCzb-16" target="kddxn9xaWUX6taKfsctK-86" edge="1">
          <mxGeometry relative="1" as="geometry" />
        </mxCell>
        <mxCell id="-0kq6au3n69eAczguCzb-16" value="student" style="rounded=1;whiteSpace=wrap;html=1;" parent="1" vertex="1">
          <mxGeometry x="840.5" y="530" width="100" height="40" as="geometry" />
        </mxCell>
        <mxCell id="-0kq6au3n69eAczguCzb-18" value="has" style="rhombus;whiteSpace=wrap;html=1;" parent="1" vertex="1">
          <mxGeometry x="160" y="110" width="60" height="60" as="geometry" />
        </mxCell>
        <mxCell id="-0kq6au3n69eAczguCzb-24" value="" style="shape=link;endArrow=classic;startArrow=classic;html=1;rounded=0;exitX=1;exitY=0.5;exitDx=0;exitDy=0;entryX=0;entryY=0.5;entryDx=0;entryDy=0;" parent="1" source="-0kq6au3n69eAczguCzb-3" target="-0kq6au3n69eAczguCzb-18" edge="1">
          <mxGeometry width="100" height="100" relative="1" as="geometry">
            <mxPoint x="20" y="240" as="sourcePoint" />
            <mxPoint x="120" y="140" as="targetPoint" />
          </mxGeometry>
        </mxCell>
        <mxCell id="kddxn9xaWUX6taKfsctK-49" value="one" style="edgeLabel;html=1;align=center;verticalAlign=middle;resizable=0;points=[];" parent="-0kq6au3n69eAczguCzb-24" vertex="1" connectable="0">
          <mxGeometry x="0.0281" y="-3" relative="1" as="geometry">
            <mxPoint as="offset" />
          </mxGeometry>
        </mxCell>
        <mxCell id="-0kq6au3n69eAczguCzb-35" value="ID" style="ellipse;whiteSpace=wrap;html=1;fontStyle=5" parent="1" vertex="1">
          <mxGeometry x="810.5" y="650" width="60" height="40" as="geometry" />
        </mxCell>
        <mxCell id="-0kq6au3n69eAczguCzb-38" value="" style="edgeStyle=orthogonalEdgeStyle;rounded=0;orthogonalLoop=1;jettySize=auto;html=1;exitX=0.5;exitY=1;exitDx=0;exitDy=0;" parent="1" source="-0kq6au3n69eAczguCzb-15" target="-0kq6au3n69eAczguCzb-40" edge="1">
          <mxGeometry relative="1" as="geometry">
            <mxPoint x="430" y="600" as="sourcePoint" />
          </mxGeometry>
        </mxCell>
        <mxCell id="-0kq6au3n69eAczguCzb-40" value="name" style="ellipse;whiteSpace=wrap;html=1;" parent="1" vertex="1">
          <mxGeometry x="445" y="650" width="60" height="40" as="geometry" />
        </mxCell>
        <mxCell id="-0kq6au3n69eAczguCzb-41" value="ID" style="ellipse;whiteSpace=wrap;html=1;fontStyle=5" parent="1" vertex="1">
          <mxGeometry x="345" y="650" width="60" height="40" as="geometry" />
        </mxCell>
        <mxCell id="kddxn9xaWUX6taKfsctK-3" value="name" style="ellipse;whiteSpace=wrap;html=1;" parent="1" vertex="1">
          <mxGeometry x="320" y="-50" width="60" height="40" as="geometry" />
        </mxCell>
        <mxCell id="kddxn9xaWUX6taKfsctK-6" value="has" style="rhombus;whiteSpace=wrap;html=1;" parent="1" vertex="1">
          <mxGeometry x="620" y="110" width="60" height="60" as="geometry" />
        </mxCell>
        <mxCell id="kddxn9xaWUX6taKfsctK-9" value="" style="shape=link;endArrow=classic;startArrow=classic;html=1;rounded=0;exitX=1;exitY=0.5;exitDx=0;exitDy=0;entryX=0;entryY=0.5;entryDx=0;entryDy=0;" parent="1" source="-0kq6au3n69eAczguCzb-13" target="kddxn9xaWUX6taKfsctK-6" edge="1">
          <mxGeometry width="100" height="100" relative="1" as="geometry">
            <mxPoint x="420" y="260" as="sourcePoint" />
            <mxPoint x="490" y="260" as="targetPoint" />
          </mxGeometry>
        </mxCell>
        <mxCell id="kddxn9xaWUX6taKfsctK-51" value="many" style="edgeLabel;html=1;align=center;verticalAlign=middle;resizable=0;points=[];" parent="kddxn9xaWUX6taKfsctK-9" vertex="1" connectable="0">
          <mxGeometry x="0.076" relative="1" as="geometry">
            <mxPoint x="-1" as="offset" />
          </mxGeometry>
        </mxCell>
        <mxCell id="kddxn9xaWUX6taKfsctK-10" value="" style="shape=link;endArrow=classic;startArrow=classic;html=1;rounded=0;exitX=1;exitY=0.5;exitDx=0;exitDy=0;entryX=0;entryY=0.5;entryDx=0;entryDy=0;" parent="1" source="kddxn9xaWUX6taKfsctK-6" target="-0kq6au3n69eAczguCzb-14" edge="1">
          <mxGeometry width="100" height="100" relative="1" as="geometry">
            <mxPoint x="740.5" y="190" as="sourcePoint" />
            <mxPoint x="810.5" y="190" as="targetPoint" />
          </mxGeometry>
        </mxCell>
        <mxCell id="kddxn9xaWUX6taKfsctK-52" value="many" style="edgeLabel;html=1;align=center;verticalAlign=middle;resizable=0;points=[];" parent="kddxn9xaWUX6taKfsctK-10" vertex="1" connectable="0">
          <mxGeometry x="-0.2582" y="-3" relative="1" as="geometry">
            <mxPoint as="offset" />
          </mxGeometry>
        </mxCell>
        <mxCell id="kddxn9xaWUX6taKfsctK-11" value="" style="shape=link;endArrow=classic;startArrow=classic;html=1;rounded=0;exitX=1;exitY=0.5;exitDx=0;exitDy=0;entryX=0;entryY=0.5;entryDx=0;entryDy=0;" parent="1" source="-0kq6au3n69eAczguCzb-18" target="-0kq6au3n69eAczguCzb-13" edge="1">
          <mxGeometry width="100" height="100" relative="1" as="geometry">
            <mxPoint x="350" y="230" as="sourcePoint" />
            <mxPoint x="420" y="230" as="targetPoint" />
          </mxGeometry>
        </mxCell>
        <mxCell id="kddxn9xaWUX6taKfsctK-50" value="many" style="edgeLabel;html=1;align=center;verticalAlign=middle;resizable=0;points=[];" parent="kddxn9xaWUX6taKfsctK-11" vertex="1" connectable="0">
          <mxGeometry x="-0.0715" y="3" relative="1" as="geometry">
            <mxPoint as="offset" />
          </mxGeometry>
        </mxCell>
        <mxCell id="kddxn9xaWUX6taKfsctK-12" value="chair" style="rhombus;whiteSpace=wrap;html=1;" parent="1" vertex="1">
          <mxGeometry x="309.5" y="340" width="60" height="60" as="geometry" />
        </mxCell>
        <mxCell id="kddxn9xaWUX6taKfsctK-15" value="" style="endArrow=none;html=1;rounded=0;exitX=0;exitY=0.5;exitDx=0;exitDy=0;entryX=0.5;entryY=1;entryDx=0;entryDy=0;" parent="1" source="-0kq6au3n69eAczguCzb-15" target="kddxn9xaWUX6taKfsctK-12" edge="1">
          <mxGeometry width="50" height="50" relative="1" as="geometry">
            <mxPoint x="320" y="470" as="sourcePoint" />
            <mxPoint x="340" y="460" as="targetPoint" />
            <Array as="points">
              <mxPoint x="340" y="550" />
            </Array>
          </mxGeometry>
        </mxCell>
        <mxCell id="kddxn9xaWUX6taKfsctK-58" value="one" style="edgeLabel;html=1;align=center;verticalAlign=middle;resizable=0;points=[];" parent="kddxn9xaWUX6taKfsctK-15" vertex="1" connectable="0">
          <mxGeometry x="0.4081" relative="1" as="geometry">
            <mxPoint as="offset" />
          </mxGeometry>
        </mxCell>
        <mxCell id="kddxn9xaWUX6taKfsctK-18" value="" style="shape=link;endArrow=classic;startArrow=classic;html=1;rounded=0;exitX=0.5;exitY=0;exitDx=0;exitDy=0;entryX=0;entryY=1;entryDx=0;entryDy=0;" parent="1" source="kddxn9xaWUX6taKfsctK-12" target="-0kq6au3n69eAczguCzb-13" edge="1">
          <mxGeometry width="100" height="100" relative="1" as="geometry">
            <mxPoint x="350" y="190" as="sourcePoint" />
            <mxPoint x="410" y="190" as="targetPoint" />
            <Array as="points">
              <mxPoint x="340" y="160" />
            </Array>
          </mxGeometry>
        </mxCell>
        <mxCell id="kddxn9xaWUX6taKfsctK-59" value="one" style="edgeLabel;html=1;align=center;verticalAlign=middle;resizable=0;points=[];" parent="kddxn9xaWUX6taKfsctK-18" vertex="1" connectable="0">
          <mxGeometry x="-0.2791" y="3" relative="1" as="geometry">
            <mxPoint as="offset" />
          </mxGeometry>
        </mxCell>
        <mxCell id="kddxn9xaWUX6taKfsctK-19" value="employee" style="rhombus;whiteSpace=wrap;html=1;" parent="1" vertex="1">
          <mxGeometry x="480" y="340" width="60" height="60" as="geometry" />
        </mxCell>
        <mxCell id="kddxn9xaWUX6taKfsctK-20" value="" style="endArrow=none;html=1;rounded=0;exitX=1;exitY=0;exitDx=0;exitDy=0;entryX=0.5;entryY=1;entryDx=0;entryDy=0;" parent="1" source="-0kq6au3n69eAczguCzb-15" target="kddxn9xaWUX6taKfsctK-19" edge="1">
          <mxGeometry width="50" height="50" relative="1" as="geometry">
            <mxPoint x="320" y="470" as="sourcePoint" />
            <mxPoint x="510.5" y="460" as="targetPoint" />
            <Array as="points">
              <mxPoint x="510" y="530" />
            </Array>
          </mxGeometry>
        </mxCell>
        <mxCell id="kddxn9xaWUX6taKfsctK-56" value="many" style="edgeLabel;html=1;align=center;verticalAlign=middle;resizable=0;points=[];" parent="kddxn9xaWUX6taKfsctK-20" vertex="1" connectable="0">
          <mxGeometry x="0.2666" y="-4" relative="1" as="geometry">
            <mxPoint y="-1" as="offset" />
          </mxGeometry>
        </mxCell>
        <mxCell id="kddxn9xaWUX6taKfsctK-22" style="edgeStyle=orthogonalEdgeStyle;rounded=0;orthogonalLoop=1;jettySize=auto;html=1;exitX=0.5;exitY=1;exitDx=0;exitDy=0;" parent="1" source="-0kq6au3n69eAczguCzb-15" target="-0kq6au3n69eAczguCzb-15" edge="1">
          <mxGeometry relative="1" as="geometry" />
        </mxCell>
        <mxCell id="kddxn9xaWUX6taKfsctK-23" value="teach" style="rhombus;whiteSpace=wrap;html=1;" parent="1" vertex="1">
          <mxGeometry x="690" y="340" width="60" height="60" as="geometry" />
        </mxCell>
        <mxCell id="kddxn9xaWUX6taKfsctK-24" value="" style="endArrow=none;html=1;rounded=0;entryX=0.5;entryY=1;entryDx=0;entryDy=0;exitX=1;exitY=0.5;exitDx=0;exitDy=0;" parent="1" source="-0kq6au3n69eAczguCzb-15" target="kddxn9xaWUX6taKfsctK-23" edge="1">
          <mxGeometry width="50" height="50" relative="1" as="geometry">
            <mxPoint x="320" y="470" as="sourcePoint" />
            <mxPoint x="720.5" y="460" as="targetPoint" />
            <Array as="points">
              <mxPoint x="720.5" y="550" />
            </Array>
          </mxGeometry>
        </mxCell>
        <mxCell id="kddxn9xaWUX6taKfsctK-62" value="many" style="edgeLabel;html=1;align=center;verticalAlign=middle;resizable=0;points=[];" parent="kddxn9xaWUX6taKfsctK-24" vertex="1" connectable="0">
          <mxGeometry x="0.6488" y="-4" relative="1" as="geometry">
            <mxPoint as="offset" />
          </mxGeometry>
        </mxCell>
        <mxCell id="kddxn9xaWUX6taKfsctK-26" value="" style="shape=link;endArrow=classic;startArrow=classic;html=1;rounded=0;exitX=0.5;exitY=0;exitDx=0;exitDy=0;entryX=0;entryY=1;entryDx=0;entryDy=0;" parent="1" source="kddxn9xaWUX6taKfsctK-23" target="-0kq6au3n69eAczguCzb-14" edge="1">
          <mxGeometry width="100" height="100" relative="1" as="geometry">
            <mxPoint x="790.5" y="220" as="sourcePoint" />
            <mxPoint x="880.5" y="220" as="targetPoint" />
            <Array as="points">
              <mxPoint x="720.5" y="190" />
              <mxPoint x="840.5" y="190" />
            </Array>
          </mxGeometry>
        </mxCell>
        <mxCell id="kddxn9xaWUX6taKfsctK-60" value="many" style="edgeLabel;html=1;align=center;verticalAlign=middle;resizable=0;points=[];" parent="kddxn9xaWUX6taKfsctK-26" vertex="1" connectable="0">
          <mxGeometry x="-0.3227" y="-2" relative="1" as="geometry">
            <mxPoint as="offset" />
          </mxGeometry>
        </mxCell>
        <mxCell id="kddxn9xaWUX6taKfsctK-27" value="enroll" style="rhombus;whiteSpace=wrap;html=1;" parent="1" vertex="1">
          <mxGeometry x="860" y="340" width="60" height="60" as="geometry" />
        </mxCell>
        <mxCell id="kddxn9xaWUX6taKfsctK-28" value="" style="endArrow=none;html=1;rounded=0;entryX=0.5;entryY=1;entryDx=0;entryDy=0;exitX=0.5;exitY=0;exitDx=0;exitDy=0;" parent="1" source="kddxn9xaWUX6taKfsctK-27" target="-0kq6au3n69eAczguCzb-14" edge="1">
          <mxGeometry width="50" height="50" relative="1" as="geometry">
            <mxPoint x="890.5" y="300" as="sourcePoint" />
            <mxPoint x="1010.5" y="200" as="targetPoint" />
            <Array as="points" />
          </mxGeometry>
        </mxCell>
        <mxCell id="kddxn9xaWUX6taKfsctK-53" value="many" style="edgeLabel;html=1;align=center;verticalAlign=middle;resizable=0;points=[];" parent="kddxn9xaWUX6taKfsctK-28" vertex="1" connectable="0">
          <mxGeometry x="-0.0803" y="-2" relative="1" as="geometry">
            <mxPoint as="offset" />
          </mxGeometry>
        </mxCell>
        <mxCell id="kddxn9xaWUX6taKfsctK-30" value="" style="shape=link;endArrow=classic;startArrow=classic;html=1;rounded=0;entryX=0.5;entryY=1;entryDx=0;entryDy=0;exitX=0.5;exitY=0;exitDx=0;exitDy=0;" parent="1" source="-0kq6au3n69eAczguCzb-16" target="kddxn9xaWUX6taKfsctK-27" edge="1">
          <mxGeometry width="100" height="100" relative="1" as="geometry">
            <mxPoint x="890.5" y="520" as="sourcePoint" />
            <mxPoint x="890.5" y="460" as="targetPoint" />
          </mxGeometry>
        </mxCell>
        <mxCell id="kddxn9xaWUX6taKfsctK-54" value="many" style="edgeLabel;html=1;align=center;verticalAlign=middle;resizable=0;points=[];" parent="kddxn9xaWUX6taKfsctK-30" vertex="1" connectable="0">
          <mxGeometry x="0.1015" y="3" relative="1" as="geometry">
            <mxPoint as="offset" />
          </mxGeometry>
        </mxCell>
        <mxCell id="kddxn9xaWUX6taKfsctK-31" value="advise" style="rhombus;whiteSpace=wrap;html=1;" parent="1" vertex="1">
          <mxGeometry x="690.5" y="570" width="60" height="60" as="geometry" />
        </mxCell>
        <mxCell id="kddxn9xaWUX6taKfsctK-33" value="" style="shape=link;endArrow=classic;startArrow=classic;html=1;rounded=0;exitX=0;exitY=0.5;exitDx=0;exitDy=0;entryX=1;entryY=0.5;entryDx=0;entryDy=0;" parent="1" source="-0kq6au3n69eAczguCzb-16" target="kddxn9xaWUX6taKfsctK-31" edge="1">
          <mxGeometry width="100" height="100" relative="1" as="geometry">
            <mxPoint x="800.5" y="580" as="sourcePoint" />
            <mxPoint x="920.5" y="490" as="targetPoint" />
            <Array as="points">
              <mxPoint x="800.5" y="550" />
              <mxPoint x="800.5" y="600" />
            </Array>
          </mxGeometry>
        </mxCell>
        <mxCell id="kddxn9xaWUX6taKfsctK-64" value="many" style="edgeLabel;html=1;align=center;verticalAlign=middle;resizable=0;points=[];" parent="kddxn9xaWUX6taKfsctK-33" vertex="1" connectable="0">
          <mxGeometry x="-0.0227" relative="1" as="geometry">
            <mxPoint as="offset" />
          </mxGeometry>
        </mxCell>
        <mxCell id="kddxn9xaWUX6taKfsctK-34" value="" style="endArrow=none;html=1;rounded=0;entryX=0;entryY=0.5;entryDx=0;entryDy=0;exitX=1;exitY=1;exitDx=0;exitDy=0;" parent="1" source="-0kq6au3n69eAczguCzb-15" target="kddxn9xaWUX6taKfsctK-31" edge="1">
          <mxGeometry width="50" height="50" relative="1" as="geometry">
            <mxPoint x="520" y="590" as="sourcePoint" />
            <mxPoint x="390" y="420" as="targetPoint" />
            <Array as="points">
              <mxPoint x="530" y="570" />
              <mxPoint x="530" y="600" />
            </Array>
          </mxGeometry>
        </mxCell>
        <mxCell id="kddxn9xaWUX6taKfsctK-63" value="one" style="edgeLabel;html=1;align=center;verticalAlign=middle;resizable=0;points=[];" parent="kddxn9xaWUX6taKfsctK-34" vertex="1" connectable="0">
          <mxGeometry x="0.2484" y="-2" relative="1" as="geometry">
            <mxPoint as="offset" />
          </mxGeometry>
        </mxCell>
        <mxCell id="kddxn9xaWUX6taKfsctK-36" value="" style="edgeStyle=orthogonalEdgeStyle;rounded=0;orthogonalLoop=1;jettySize=auto;html=1;" parent="1" source="kddxn9xaWUX6taKfsctK-35" target="-0kq6au3n69eAczguCzb-10" edge="1">
          <mxGeometry relative="1" as="geometry" />
        </mxCell>
        <mxCell id="kddxn9xaWUX6taKfsctK-81" style="edgeStyle=orthogonalEdgeStyle;rounded=0;orthogonalLoop=1;jettySize=auto;html=1;" parent="1" source="kddxn9xaWUX6taKfsctK-35" target="kddxn9xaWUX6taKfsctK-80" edge="1">
          <mxGeometry relative="1" as="geometry" />
        </mxCell>
        <mxCell id="kddxn9xaWUX6taKfsctK-94" style="edgeStyle=orthogonalEdgeStyle;rounded=0;orthogonalLoop=1;jettySize=auto;html=1;entryX=0.5;entryY=0;entryDx=0;entryDy=0;" parent="1" source="kddxn9xaWUX6taKfsctK-35" target="kddxn9xaWUX6taKfsctK-93" edge="1">
          <mxGeometry relative="1" as="geometry" />
        </mxCell>
        <mxCell id="kddxn9xaWUX6taKfsctK-35" value="dean" style="rounded=1;whiteSpace=wrap;html=1;" parent="1" vertex="1">
          <mxGeometry x="-50" y="530" width="100" height="40" as="geometry" />
        </mxCell>
        <mxCell id="kddxn9xaWUX6taKfsctK-37" value="&lt;span style=&quot;font-size:14.0pt;line-height:107%;&lt;br/&gt;font-family:&amp;quot;Calibri&amp;quot;,sans-serif;mso-ascii-theme-font:minor-latin;mso-fareast-font-family:&lt;br/&gt;Calibri;mso-fareast-theme-font:minor-latin;mso-hansi-theme-font:minor-latin;&lt;br/&gt;mso-bidi-font-family:Arial;mso-bidi-theme-font:minor-bidi;mso-ansi-language:&lt;br/&gt;EN-US;mso-fareast-language:EN-US;mso-bidi-language:AR-EG&quot;&gt;administrate&lt;/span&gt;" style="rhombus;whiteSpace=wrap;html=1;" parent="1" vertex="1">
          <mxGeometry x="-65.25" y="300" width="130.5" height="120" as="geometry" />
        </mxCell>
        <mxCell id="kddxn9xaWUX6taKfsctK-39" value="" style="shape=link;endArrow=classic;startArrow=classic;html=1;rounded=0;exitX=0.5;exitY=1;exitDx=0;exitDy=0;entryX=0.5;entryY=0;entryDx=0;entryDy=0;" parent="1" source="-0kq6au3n69eAczguCzb-3" target="kddxn9xaWUX6taKfsctK-37" edge="1">
          <mxGeometry width="100" height="100" relative="1" as="geometry">
            <mxPoint x="30" y="210" as="sourcePoint" />
            <mxPoint x="160" y="230" as="targetPoint" />
          </mxGeometry>
        </mxCell>
        <mxCell id="kddxn9xaWUX6taKfsctK-47" value="one" style="edgeLabel;html=1;align=center;verticalAlign=middle;resizable=0;points=[];" parent="kddxn9xaWUX6taKfsctK-39" vertex="1" connectable="0">
          <mxGeometry x="-0.0815" y="3" relative="1" as="geometry">
            <mxPoint as="offset" />
          </mxGeometry>
        </mxCell>
        <mxCell id="kddxn9xaWUX6taKfsctK-40" value="" style="shape=link;endArrow=classic;startArrow=classic;html=1;rounded=0;exitX=0.5;exitY=1;exitDx=0;exitDy=0;entryX=0.5;entryY=0;entryDx=0;entryDy=0;" parent="1" source="kddxn9xaWUX6taKfsctK-37" target="kddxn9xaWUX6taKfsctK-35" edge="1">
          <mxGeometry width="100" height="100" relative="1" as="geometry">
            <mxPoint x="0.5" y="480" as="sourcePoint" />
            <mxPoint x="130" y="480" as="targetPoint" />
          </mxGeometry>
        </mxCell>
        <mxCell id="kddxn9xaWUX6taKfsctK-48" value="one" style="edgeLabel;html=1;align=center;verticalAlign=middle;resizable=0;points=[];" parent="kddxn9xaWUX6taKfsctK-40" vertex="1" connectable="0">
          <mxGeometry x="0.3494" y="-3" relative="1" as="geometry">
            <mxPoint as="offset" />
          </mxGeometry>
        </mxCell>
        <mxCell id="kddxn9xaWUX6taKfsctK-41" value="" style="edgeStyle=orthogonalEdgeStyle;rounded=0;orthogonalLoop=1;jettySize=auto;html=1;" parent="1" source="-0kq6au3n69eAczguCzb-16" target="-0kq6au3n69eAczguCzb-33" edge="1">
          <mxGeometry relative="1" as="geometry">
            <mxPoint x="890.5" y="570" as="sourcePoint" />
            <mxPoint x="940.5" y="650" as="targetPoint" />
          </mxGeometry>
        </mxCell>
        <mxCell id="-0kq6au3n69eAczguCzb-33" value="name" style="ellipse;whiteSpace=wrap;html=1;" parent="1" vertex="1">
          <mxGeometry x="910.5" y="650" width="60" height="40" as="geometry" />
        </mxCell>
        <mxCell id="kddxn9xaWUX6taKfsctK-43" value="" style="shape=link;endArrow=classic;startArrow=classic;html=1;rounded=0;exitX=0.5;exitY=0;exitDx=0;exitDy=0;entryX=1;entryY=1;entryDx=0;entryDy=0;" parent="1" source="kddxn9xaWUX6taKfsctK-19" target="-0kq6au3n69eAczguCzb-13" edge="1">
          <mxGeometry width="100" height="100" relative="1" as="geometry">
            <mxPoint x="490" y="430" as="sourcePoint" />
            <mxPoint x="520" y="250" as="targetPoint" />
            <Array as="points">
              <mxPoint x="510" y="160" />
            </Array>
          </mxGeometry>
        </mxCell>
        <mxCell id="kddxn9xaWUX6taKfsctK-57" value="one" style="edgeLabel;html=1;align=center;verticalAlign=middle;resizable=0;points=[];" parent="kddxn9xaWUX6taKfsctK-43" vertex="1" connectable="0">
          <mxGeometry x="-0.2848" y="3" relative="1" as="geometry">
            <mxPoint as="offset" />
          </mxGeometry>
        </mxCell>
        <mxCell id="kddxn9xaWUX6taKfsctK-78" value="address" style="ellipse;whiteSpace=wrap;html=1;" parent="1" vertex="1">
          <mxGeometry x="30" y="-50" width="60" height="40" as="geometry" />
        </mxCell>
        <mxCell id="kddxn9xaWUX6taKfsctK-80" value="ID" style="ellipse;whiteSpace=wrap;html=1;fontStyle=5" parent="1" vertex="1">
          <mxGeometry x="20" y="620" width="60" height="40" as="geometry" />
        </mxCell>
        <mxCell id="kddxn9xaWUX6taKfsctK-82" value="name" style="ellipse;whiteSpace=wrap;html=1;" parent="1" vertex="1">
          <mxGeometry x="790.5" y="-50" width="60" height="40" as="geometry" />
        </mxCell>
        <mxCell id="kddxn9xaWUX6taKfsctK-86" value="phone" style="ellipse;shape=doubleEllipse;margin=3;whiteSpace=wrap;html=1;align=center;" parent="1" vertex="1">
          <mxGeometry x="841" y="720" width="100" height="40" as="geometry" />
        </mxCell>
        <mxCell id="kddxn9xaWUX6taKfsctK-90" value="phone" style="ellipse;shape=doubleEllipse;margin=3;whiteSpace=wrap;html=1;align=center;" parent="1" vertex="1">
          <mxGeometry x="320" y="760" width="100" height="40" as="geometry" />
        </mxCell>
        <mxCell id="kddxn9xaWUX6taKfsctK-93" value="phone" style="ellipse;shape=doubleEllipse;margin=3;whiteSpace=wrap;html=1;align=center;" parent="1" vertex="1">
          <mxGeometry x="-50" y="720" width="100" height="40" as="geometry" />
        </mxCell>
        <mxCell id="kddxn9xaWUX6taKfsctK-95" value="LICIENCE" style="ellipse;whiteSpace=wrap;html=1;fontStyle=5" parent="1" vertex="1">
          <mxGeometry x="-30" y="-120" width="60" height="40" as="geometry" />
        </mxCell>
        <mxCell id="kddxn9xaWUX6taKfsctK-97" value="faculty" style="shape=table;startSize=30;container=1;collapsible=1;childLayout=tableLayout;fixedRows=2;rowLines=0;fontStyle=1;align=center;resizeLast=1;html=1;" parent="1" vertex="1">
          <mxGeometry x="-80" y="880" width="180" height="120" as="geometry" />
        </mxCell>
        <mxCell id="kddxn9xaWUX6taKfsctK-98" value="" style="shape=tableRow;horizontal=0;startSize=0;swimlaneHead=0;swimlaneBody=0;fillColor=none;collapsible=0;dropTarget=0;points=[[0,0.5],[1,0.5]];portConstraint=eastwest;top=0;left=0;right=0;bottom=1;" parent="kddxn9xaWUX6taKfsctK-97" vertex="1">
          <mxGeometry y="30" width="180" height="30" as="geometry" />
        </mxCell>
        <mxCell id="kddxn9xaWUX6taKfsctK-99" value="PK" style="shape=partialRectangle;connectable=0;fillColor=none;top=0;left=0;bottom=0;right=0;fontStyle=1;overflow=hidden;whiteSpace=wrap;html=1;" parent="kddxn9xaWUX6taKfsctK-98" vertex="1">
          <mxGeometry width="30" height="30" as="geometry">
            <mxRectangle width="30" height="30" as="alternateBounds" />
          </mxGeometry>
        </mxCell>
        <mxCell id="kddxn9xaWUX6taKfsctK-100" value="LICIENCE" style="shape=partialRectangle;connectable=0;fillColor=none;top=0;left=0;bottom=0;right=0;align=left;spacingLeft=6;fontStyle=5;overflow=hidden;whiteSpace=wrap;html=1;" parent="kddxn9xaWUX6taKfsctK-98" vertex="1">
          <mxGeometry x="30" width="150" height="30" as="geometry">
            <mxRectangle width="150" height="30" as="alternateBounds" />
          </mxGeometry>
        </mxCell>
        <mxCell id="kddxn9xaWUX6taKfsctK-101" value="" style="shape=tableRow;horizontal=0;startSize=0;swimlaneHead=0;swimlaneBody=0;fillColor=none;collapsible=0;dropTarget=0;points=[[0,0.5],[1,0.5]];portConstraint=eastwest;top=0;left=0;right=0;bottom=0;" parent="kddxn9xaWUX6taKfsctK-97" vertex="1">
          <mxGeometry y="60" width="180" height="30" as="geometry" />
        </mxCell>
        <mxCell id="kddxn9xaWUX6taKfsctK-102" value="" style="shape=partialRectangle;connectable=0;fillColor=none;top=0;left=0;bottom=0;right=0;editable=1;overflow=hidden;whiteSpace=wrap;html=1;" parent="kddxn9xaWUX6taKfsctK-101" vertex="1">
          <mxGeometry width="30" height="30" as="geometry">
            <mxRectangle width="30" height="30" as="alternateBounds" />
          </mxGeometry>
        </mxCell>
        <mxCell id="kddxn9xaWUX6taKfsctK-103" value="name" style="shape=partialRectangle;connectable=0;fillColor=none;top=0;left=0;bottom=0;right=0;align=left;spacingLeft=6;overflow=hidden;whiteSpace=wrap;html=1;" parent="kddxn9xaWUX6taKfsctK-101" vertex="1">
          <mxGeometry x="30" width="150" height="30" as="geometry">
            <mxRectangle width="150" height="30" as="alternateBounds" />
          </mxGeometry>
        </mxCell>
        <mxCell id="kddxn9xaWUX6taKfsctK-104" value="" style="shape=tableRow;horizontal=0;startSize=0;swimlaneHead=0;swimlaneBody=0;fillColor=none;collapsible=0;dropTarget=0;points=[[0,0.5],[1,0.5]];portConstraint=eastwest;top=0;left=0;right=0;bottom=0;" parent="kddxn9xaWUX6taKfsctK-97" vertex="1">
          <mxGeometry y="90" width="180" height="30" as="geometry" />
        </mxCell>
        <mxCell id="kddxn9xaWUX6taKfsctK-105" value="" style="shape=partialRectangle;connectable=0;fillColor=none;top=0;left=0;bottom=0;right=0;editable=1;overflow=hidden;whiteSpace=wrap;html=1;" parent="kddxn9xaWUX6taKfsctK-104" vertex="1">
          <mxGeometry width="30" height="30" as="geometry">
            <mxRectangle width="30" height="30" as="alternateBounds" />
          </mxGeometry>
        </mxCell>
        <mxCell id="kddxn9xaWUX6taKfsctK-106" value="address" style="shape=partialRectangle;connectable=0;fillColor=none;top=0;left=0;bottom=0;right=0;align=left;spacingLeft=6;overflow=hidden;whiteSpace=wrap;html=1;" parent="kddxn9xaWUX6taKfsctK-104" vertex="1">
          <mxGeometry x="30" width="150" height="30" as="geometry">
            <mxRectangle width="150" height="30" as="alternateBounds" />
          </mxGeometry>
        </mxCell>
        <mxCell id="kddxn9xaWUX6taKfsctK-110" value="dean" style="shape=table;startSize=30;container=1;collapsible=1;childLayout=tableLayout;fixedRows=1;rowLines=0;fontStyle=1;align=center;resizeLast=1;html=1;" parent="1" vertex="1">
          <mxGeometry x="110" y="880" width="180" height="120" as="geometry" />
        </mxCell>
        <mxCell id="kddxn9xaWUX6taKfsctK-111" value="" style="shape=tableRow;horizontal=0;startSize=0;swimlaneHead=0;swimlaneBody=0;fillColor=none;collapsible=0;dropTarget=0;points=[[0,0.5],[1,0.5]];portConstraint=eastwest;top=0;left=0;right=0;bottom=1;" parent="kddxn9xaWUX6taKfsctK-110" vertex="1">
          <mxGeometry y="30" width="180" height="30" as="geometry" />
        </mxCell>
        <mxCell id="kddxn9xaWUX6taKfsctK-112" value="PK" style="shape=partialRectangle;connectable=0;fillColor=none;top=0;left=0;bottom=0;right=0;fontStyle=1;overflow=hidden;whiteSpace=wrap;html=1;" parent="kddxn9xaWUX6taKfsctK-111" vertex="1">
          <mxGeometry width="30" height="30" as="geometry">
            <mxRectangle width="30" height="30" as="alternateBounds" />
          </mxGeometry>
        </mxCell>
        <mxCell id="kddxn9xaWUX6taKfsctK-113" value="ID" style="shape=partialRectangle;connectable=0;fillColor=none;top=0;left=0;bottom=0;right=0;align=left;spacingLeft=6;fontStyle=5;overflow=hidden;whiteSpace=wrap;html=1;" parent="kddxn9xaWUX6taKfsctK-111" vertex="1">
          <mxGeometry x="30" width="150" height="30" as="geometry">
            <mxRectangle width="150" height="30" as="alternateBounds" />
          </mxGeometry>
        </mxCell>
        <mxCell id="kddxn9xaWUX6taKfsctK-114" value="" style="shape=tableRow;horizontal=0;startSize=0;swimlaneHead=0;swimlaneBody=0;fillColor=none;collapsible=0;dropTarget=0;points=[[0,0.5],[1,0.5]];portConstraint=eastwest;top=0;left=0;right=0;bottom=0;" parent="kddxn9xaWUX6taKfsctK-110" vertex="1">
          <mxGeometry y="60" width="180" height="30" as="geometry" />
        </mxCell>
        <mxCell id="kddxn9xaWUX6taKfsctK-115" value="" style="shape=partialRectangle;connectable=0;fillColor=none;top=0;left=0;bottom=0;right=0;editable=1;overflow=hidden;whiteSpace=wrap;html=1;" parent="kddxn9xaWUX6taKfsctK-114" vertex="1">
          <mxGeometry width="30" height="30" as="geometry">
            <mxRectangle width="30" height="30" as="alternateBounds" />
          </mxGeometry>
        </mxCell>
        <mxCell id="kddxn9xaWUX6taKfsctK-116" value="name" style="shape=partialRectangle;connectable=0;fillColor=none;top=0;left=0;bottom=0;right=0;align=left;spacingLeft=6;overflow=hidden;whiteSpace=wrap;html=1;" parent="kddxn9xaWUX6taKfsctK-114" vertex="1">
          <mxGeometry x="30" width="150" height="30" as="geometry">
            <mxRectangle width="150" height="30" as="alternateBounds" />
          </mxGeometry>
        </mxCell>
        <mxCell id="kddxn9xaWUX6taKfsctK-117" value="" style="shape=tableRow;horizontal=0;startSize=0;swimlaneHead=0;swimlaneBody=0;fillColor=none;collapsible=0;dropTarget=0;points=[[0,0.5],[1,0.5]];portConstraint=eastwest;top=0;left=0;right=0;bottom=0;" parent="kddxn9xaWUX6taKfsctK-110" vertex="1">
          <mxGeometry y="90" width="180" height="30" as="geometry" />
        </mxCell>
        <mxCell id="kddxn9xaWUX6taKfsctK-118" value="" style="shape=partialRectangle;connectable=0;fillColor=none;top=0;left=0;bottom=0;right=0;editable=1;overflow=hidden;whiteSpace=wrap;html=1;" parent="kddxn9xaWUX6taKfsctK-117" vertex="1">
          <mxGeometry width="30" height="30" as="geometry">
            <mxRectangle width="30" height="30" as="alternateBounds" />
          </mxGeometry>
        </mxCell>
        <mxCell id="kddxn9xaWUX6taKfsctK-119" value="phone" style="shape=partialRectangle;connectable=0;fillColor=none;top=0;left=0;bottom=0;right=0;align=left;spacingLeft=6;overflow=hidden;whiteSpace=wrap;html=1;" parent="kddxn9xaWUX6taKfsctK-117" vertex="1">
          <mxGeometry x="30" width="150" height="30" as="geometry">
            <mxRectangle width="150" height="30" as="alternateBounds" />
          </mxGeometry>
        </mxCell>
        <mxCell id="kddxn9xaWUX6taKfsctK-123" value="DEPARTMENT_CODE" style="ellipse;whiteSpace=wrap;html=1;fontStyle=5" parent="1" vertex="1">
          <mxGeometry x="460" y="-80" width="130" height="70" as="geometry" />
        </mxCell>
        <mxCell id="kddxn9xaWUX6taKfsctK-135" value="student" style="shape=table;startSize=30;container=1;collapsible=1;childLayout=tableLayout;fixedRows=1;rowLines=0;fontStyle=1;align=center;resizeLast=1;html=1;" parent="1" vertex="1">
          <mxGeometry x="490" y="880" width="180" height="120" as="geometry" />
        </mxCell>
        <mxCell id="kddxn9xaWUX6taKfsctK-136" value="" style="shape=tableRow;horizontal=0;startSize=0;swimlaneHead=0;swimlaneBody=0;fillColor=none;collapsible=0;dropTarget=0;points=[[0,0.5],[1,0.5]];portConstraint=eastwest;top=0;left=0;right=0;bottom=1;" parent="kddxn9xaWUX6taKfsctK-135" vertex="1">
          <mxGeometry y="30" width="180" height="30" as="geometry" />
        </mxCell>
        <mxCell id="kddxn9xaWUX6taKfsctK-137" value="PK" style="shape=partialRectangle;connectable=0;fillColor=none;top=0;left=0;bottom=0;right=0;fontStyle=1;overflow=hidden;whiteSpace=wrap;html=1;" parent="kddxn9xaWUX6taKfsctK-136" vertex="1">
          <mxGeometry width="30" height="30" as="geometry">
            <mxRectangle width="30" height="30" as="alternateBounds" />
          </mxGeometry>
        </mxCell>
        <mxCell id="kddxn9xaWUX6taKfsctK-138" value="ID" style="shape=partialRectangle;connectable=0;fillColor=none;top=0;left=0;bottom=0;right=0;align=left;spacingLeft=6;fontStyle=5;overflow=hidden;whiteSpace=wrap;html=1;" parent="kddxn9xaWUX6taKfsctK-136" vertex="1">
          <mxGeometry x="30" width="150" height="30" as="geometry">
            <mxRectangle width="150" height="30" as="alternateBounds" />
          </mxGeometry>
        </mxCell>
        <mxCell id="kddxn9xaWUX6taKfsctK-139" value="" style="shape=tableRow;horizontal=0;startSize=0;swimlaneHead=0;swimlaneBody=0;fillColor=none;collapsible=0;dropTarget=0;points=[[0,0.5],[1,0.5]];portConstraint=eastwest;top=0;left=0;right=0;bottom=0;" parent="kddxn9xaWUX6taKfsctK-135" vertex="1">
          <mxGeometry y="60" width="180" height="30" as="geometry" />
        </mxCell>
        <mxCell id="kddxn9xaWUX6taKfsctK-140" value="" style="shape=partialRectangle;connectable=0;fillColor=none;top=0;left=0;bottom=0;right=0;editable=1;overflow=hidden;whiteSpace=wrap;html=1;" parent="kddxn9xaWUX6taKfsctK-139" vertex="1">
          <mxGeometry width="30" height="30" as="geometry">
            <mxRectangle width="30" height="30" as="alternateBounds" />
          </mxGeometry>
        </mxCell>
        <mxCell id="kddxn9xaWUX6taKfsctK-141" value="name" style="shape=partialRectangle;connectable=0;fillColor=none;top=0;left=0;bottom=0;right=0;align=left;spacingLeft=6;overflow=hidden;whiteSpace=wrap;html=1;" parent="kddxn9xaWUX6taKfsctK-139" vertex="1">
          <mxGeometry x="30" width="150" height="30" as="geometry">
            <mxRectangle width="150" height="30" as="alternateBounds" />
          </mxGeometry>
        </mxCell>
        <mxCell id="kddxn9xaWUX6taKfsctK-142" value="" style="shape=tableRow;horizontal=0;startSize=0;swimlaneHead=0;swimlaneBody=0;fillColor=none;collapsible=0;dropTarget=0;points=[[0,0.5],[1,0.5]];portConstraint=eastwest;top=0;left=0;right=0;bottom=0;" parent="kddxn9xaWUX6taKfsctK-135" vertex="1">
          <mxGeometry y="90" width="180" height="30" as="geometry" />
        </mxCell>
        <mxCell id="kddxn9xaWUX6taKfsctK-143" value="" style="shape=partialRectangle;connectable=0;fillColor=none;top=0;left=0;bottom=0;right=0;editable=1;overflow=hidden;whiteSpace=wrap;html=1;" parent="kddxn9xaWUX6taKfsctK-142" vertex="1">
          <mxGeometry width="30" height="30" as="geometry">
            <mxRectangle width="30" height="30" as="alternateBounds" />
          </mxGeometry>
        </mxCell>
        <mxCell id="kddxn9xaWUX6taKfsctK-144" value="phone" style="shape=partialRectangle;connectable=0;fillColor=none;top=0;left=0;bottom=0;right=0;align=left;spacingLeft=6;overflow=hidden;whiteSpace=wrap;html=1;" parent="kddxn9xaWUX6taKfsctK-142" vertex="1">
          <mxGeometry x="30" width="150" height="30" as="geometry">
            <mxRectangle width="150" height="30" as="alternateBounds" />
          </mxGeometry>
        </mxCell>
        <mxCell id="kddxn9xaWUX6taKfsctK-145" value="department" style="shape=table;startSize=30;container=1;collapsible=1;childLayout=tableLayout;fixedRows=1;rowLines=0;fontStyle=1;align=center;resizeLast=1;html=1;" parent="1" vertex="1">
          <mxGeometry x="680" y="880" width="180" height="120" as="geometry" />
        </mxCell>
        <mxCell id="kddxn9xaWUX6taKfsctK-146" value="" style="shape=tableRow;horizontal=0;startSize=0;swimlaneHead=0;swimlaneBody=0;fillColor=none;collapsible=0;dropTarget=0;points=[[0,0.5],[1,0.5]];portConstraint=eastwest;top=0;left=0;right=0;bottom=1;" parent="kddxn9xaWUX6taKfsctK-145" vertex="1">
          <mxGeometry y="30" width="180" height="30" as="geometry" />
        </mxCell>
        <mxCell id="kddxn9xaWUX6taKfsctK-147" value="PK" style="shape=partialRectangle;connectable=0;fillColor=none;top=0;left=0;bottom=0;right=0;fontStyle=1;overflow=hidden;whiteSpace=wrap;html=1;" parent="kddxn9xaWUX6taKfsctK-146" vertex="1">
          <mxGeometry width="30" height="30" as="geometry">
            <mxRectangle width="30" height="30" as="alternateBounds" />
          </mxGeometry>
        </mxCell>
        <mxCell id="kddxn9xaWUX6taKfsctK-148" value="&lt;span style=&quot;text-align: center;&quot;&gt;DEPARTMENT_CODE&lt;/span&gt;" style="shape=partialRectangle;connectable=0;fillColor=none;top=0;left=0;bottom=0;right=0;align=left;spacingLeft=6;fontStyle=5;overflow=hidden;whiteSpace=wrap;html=1;" parent="kddxn9xaWUX6taKfsctK-146" vertex="1">
          <mxGeometry x="30" width="150" height="30" as="geometry">
            <mxRectangle width="150" height="30" as="alternateBounds" />
          </mxGeometry>
        </mxCell>
        <mxCell id="kddxn9xaWUX6taKfsctK-149" value="" style="shape=tableRow;horizontal=0;startSize=0;swimlaneHead=0;swimlaneBody=0;fillColor=none;collapsible=0;dropTarget=0;points=[[0,0.5],[1,0.5]];portConstraint=eastwest;top=0;left=0;right=0;bottom=0;" parent="kddxn9xaWUX6taKfsctK-145" vertex="1">
          <mxGeometry y="60" width="180" height="30" as="geometry" />
        </mxCell>
        <mxCell id="kddxn9xaWUX6taKfsctK-150" value="" style="shape=partialRectangle;connectable=0;fillColor=none;top=0;left=0;bottom=0;right=0;editable=1;overflow=hidden;whiteSpace=wrap;html=1;" parent="kddxn9xaWUX6taKfsctK-149" vertex="1">
          <mxGeometry width="30" height="30" as="geometry">
            <mxRectangle width="30" height="30" as="alternateBounds" />
          </mxGeometry>
        </mxCell>
        <mxCell id="kddxn9xaWUX6taKfsctK-151" value="name" style="shape=partialRectangle;connectable=0;fillColor=none;top=0;left=0;bottom=0;right=0;align=left;spacingLeft=6;overflow=hidden;whiteSpace=wrap;html=1;" parent="kddxn9xaWUX6taKfsctK-149" vertex="1">
          <mxGeometry x="30" width="150" height="30" as="geometry">
            <mxRectangle width="150" height="30" as="alternateBounds" />
          </mxGeometry>
        </mxCell>
        <mxCell id="kddxn9xaWUX6taKfsctK-152" value="" style="shape=tableRow;horizontal=0;startSize=0;swimlaneHead=0;swimlaneBody=0;fillColor=none;collapsible=0;dropTarget=0;points=[[0,0.5],[1,0.5]];portConstraint=eastwest;top=0;left=0;right=0;bottom=0;" parent="kddxn9xaWUX6taKfsctK-145" vertex="1">
          <mxGeometry y="90" width="180" height="30" as="geometry" />
        </mxCell>
        <mxCell id="kddxn9xaWUX6taKfsctK-153" value="" style="shape=partialRectangle;connectable=0;fillColor=none;top=0;left=0;bottom=0;right=0;editable=1;overflow=hidden;whiteSpace=wrap;html=1;" parent="kddxn9xaWUX6taKfsctK-152" vertex="1">
          <mxGeometry width="30" height="30" as="geometry">
            <mxRectangle width="30" height="30" as="alternateBounds" />
          </mxGeometry>
        </mxCell>
        <mxCell id="kddxn9xaWUX6taKfsctK-154" value="status" style="shape=partialRectangle;connectable=0;fillColor=none;top=0;left=0;bottom=0;right=0;align=left;spacingLeft=6;overflow=hidden;whiteSpace=wrap;html=1;" parent="kddxn9xaWUX6taKfsctK-152" vertex="1">
          <mxGeometry x="30" width="150" height="30" as="geometry">
            <mxRectangle width="150" height="30" as="alternateBounds" />
          </mxGeometry>
        </mxCell>
        <mxCell id="kddxn9xaWUX6taKfsctK-158" value="status" style="ellipse;whiteSpace=wrap;html=1;fontStyle=0" parent="1" vertex="1">
          <mxGeometry x="392.5" y="-120" width="60" height="40" as="geometry" />
        </mxCell>
        <mxCell id="kddxn9xaWUX6taKfsctK-160" value="status" style="ellipse;whiteSpace=wrap;html=1;fontStyle=0" parent="1" vertex="1">
          <mxGeometry x="860" y="-120" width="60" height="40" as="geometry" />
        </mxCell>
        <mxCell id="kddxn9xaWUX6taKfsctK-162" value="course" style="shape=table;startSize=30;container=1;collapsible=1;childLayout=tableLayout;fixedRows=1;rowLines=0;fontStyle=1;align=center;resizeLast=1;html=1;" parent="1" vertex="1">
          <mxGeometry x="870" y="880" width="180" height="120" as="geometry" />
        </mxCell>
        <mxCell id="kddxn9xaWUX6taKfsctK-163" value="" style="shape=tableRow;horizontal=0;startSize=0;swimlaneHead=0;swimlaneBody=0;fillColor=none;collapsible=0;dropTarget=0;points=[[0,0.5],[1,0.5]];portConstraint=eastwest;top=0;left=0;right=0;bottom=1;" parent="kddxn9xaWUX6taKfsctK-162" vertex="1">
          <mxGeometry y="30" width="180" height="30" as="geometry" />
        </mxCell>
        <mxCell id="kddxn9xaWUX6taKfsctK-164" value="PK" style="shape=partialRectangle;connectable=0;fillColor=none;top=0;left=0;bottom=0;right=0;fontStyle=1;overflow=hidden;whiteSpace=wrap;html=1;" parent="kddxn9xaWUX6taKfsctK-163" vertex="1">
          <mxGeometry width="30" height="30" as="geometry">
            <mxRectangle width="30" height="30" as="alternateBounds" />
          </mxGeometry>
        </mxCell>
        <mxCell id="kddxn9xaWUX6taKfsctK-165" value="&lt;span style=&quot;text-align: center;&quot;&gt;COURSE_CODE&lt;/span&gt;" style="shape=partialRectangle;connectable=0;fillColor=none;top=0;left=0;bottom=0;right=0;align=left;spacingLeft=6;fontStyle=5;overflow=hidden;whiteSpace=wrap;html=1;" parent="kddxn9xaWUX6taKfsctK-163" vertex="1">
          <mxGeometry x="30" width="150" height="30" as="geometry">
            <mxRectangle width="150" height="30" as="alternateBounds" />
          </mxGeometry>
        </mxCell>
        <mxCell id="kddxn9xaWUX6taKfsctK-166" value="" style="shape=tableRow;horizontal=0;startSize=0;swimlaneHead=0;swimlaneBody=0;fillColor=none;collapsible=0;dropTarget=0;points=[[0,0.5],[1,0.5]];portConstraint=eastwest;top=0;left=0;right=0;bottom=0;" parent="kddxn9xaWUX6taKfsctK-162" vertex="1">
          <mxGeometry y="60" width="180" height="30" as="geometry" />
        </mxCell>
        <mxCell id="kddxn9xaWUX6taKfsctK-167" value="" style="shape=partialRectangle;connectable=0;fillColor=none;top=0;left=0;bottom=0;right=0;editable=1;overflow=hidden;whiteSpace=wrap;html=1;" parent="kddxn9xaWUX6taKfsctK-166" vertex="1">
          <mxGeometry width="30" height="30" as="geometry">
            <mxRectangle width="30" height="30" as="alternateBounds" />
          </mxGeometry>
        </mxCell>
        <mxCell id="kddxn9xaWUX6taKfsctK-168" value="name" style="shape=partialRectangle;connectable=0;fillColor=none;top=0;left=0;bottom=0;right=0;align=left;spacingLeft=6;overflow=hidden;whiteSpace=wrap;html=1;" parent="kddxn9xaWUX6taKfsctK-166" vertex="1">
          <mxGeometry x="30" width="150" height="30" as="geometry">
            <mxRectangle width="150" height="30" as="alternateBounds" />
          </mxGeometry>
        </mxCell>
        <mxCell id="kddxn9xaWUX6taKfsctK-169" value="" style="shape=tableRow;horizontal=0;startSize=0;swimlaneHead=0;swimlaneBody=0;fillColor=none;collapsible=0;dropTarget=0;points=[[0,0.5],[1,0.5]];portConstraint=eastwest;top=0;left=0;right=0;bottom=0;" parent="kddxn9xaWUX6taKfsctK-162" vertex="1">
          <mxGeometry y="90" width="180" height="30" as="geometry" />
        </mxCell>
        <mxCell id="kddxn9xaWUX6taKfsctK-170" value="" style="shape=partialRectangle;connectable=0;fillColor=none;top=0;left=0;bottom=0;right=0;editable=1;overflow=hidden;whiteSpace=wrap;html=1;" parent="kddxn9xaWUX6taKfsctK-169" vertex="1">
          <mxGeometry width="30" height="30" as="geometry">
            <mxRectangle width="30" height="30" as="alternateBounds" />
          </mxGeometry>
        </mxCell>
        <mxCell id="kddxn9xaWUX6taKfsctK-171" value="status" style="shape=partialRectangle;connectable=0;fillColor=none;top=0;left=0;bottom=0;right=0;align=left;spacingLeft=6;overflow=hidden;whiteSpace=wrap;html=1;" parent="kddxn9xaWUX6taKfsctK-169" vertex="1">
          <mxGeometry x="30" width="150" height="30" as="geometry">
            <mxRectangle width="150" height="30" as="alternateBounds" />
          </mxGeometry>
        </mxCell>
        <mxCell id="kddxn9xaWUX6taKfsctK-172" value="" style="shape=tableRow;horizontal=0;startSize=0;swimlaneHead=0;swimlaneBody=0;fillColor=none;collapsible=0;dropTarget=0;points=[[0,0.5],[1,0.5]];portConstraint=eastwest;top=0;left=0;right=0;bottom=0;" parent="1" vertex="1">
          <mxGeometry x="-90" y="1000" width="180" height="30" as="geometry" />
        </mxCell>
        <mxCell id="kddxn9xaWUX6taKfsctK-173" value="" style="shape=partialRectangle;connectable=0;fillColor=none;top=0;left=0;bottom=0;right=0;editable=1;overflow=hidden;whiteSpace=wrap;html=1;" parent="kddxn9xaWUX6taKfsctK-172" vertex="1">
          <mxGeometry width="30" height="30" as="geometry">
            <mxRectangle width="30" height="30" as="alternateBounds" />
          </mxGeometry>
        </mxCell>
        <mxCell id="kddxn9xaWUX6taKfsctK-179" value="employee" style="shape=table;startSize=30;container=1;collapsible=1;childLayout=tableLayout;fixedRows=1;rowLines=0;fontStyle=1;align=center;resizeLast=1;html=1;whiteSpace=wrap;" parent="1" vertex="1">
          <mxGeometry x="545" y="1060" width="210" height="90" as="geometry" />
        </mxCell>
        <mxCell id="kddxn9xaWUX6taKfsctK-180" value="" style="shape=tableRow;horizontal=0;startSize=0;swimlaneHead=0;swimlaneBody=0;fillColor=none;collapsible=0;dropTarget=0;points=[[0,0.5],[1,0.5]];portConstraint=eastwest;top=0;left=0;right=0;bottom=0;html=1;" parent="kddxn9xaWUX6taKfsctK-179" vertex="1">
          <mxGeometry y="30" width="210" height="30" as="geometry" />
        </mxCell>
        <mxCell id="kddxn9xaWUX6taKfsctK-181" value="PK,FK1" style="shape=partialRectangle;connectable=0;fillColor=none;top=0;left=0;bottom=0;right=0;fontStyle=1;overflow=hidden;html=1;whiteSpace=wrap;" parent="kddxn9xaWUX6taKfsctK-180" vertex="1">
          <mxGeometry width="60" height="30" as="geometry">
            <mxRectangle width="60" height="30" as="alternateBounds" />
          </mxGeometry>
        </mxCell>
        <mxCell id="kddxn9xaWUX6taKfsctK-182" value="&lt;span style=&quot;text-align: center;&quot;&gt;ID&lt;/span&gt;" style="shape=partialRectangle;connectable=0;fillColor=none;top=0;left=0;bottom=0;right=0;align=left;spacingLeft=6;fontStyle=5;overflow=hidden;html=1;whiteSpace=wrap;" parent="kddxn9xaWUX6taKfsctK-180" vertex="1">
          <mxGeometry x="60" width="150" height="30" as="geometry">
            <mxRectangle width="150" height="30" as="alternateBounds" />
          </mxGeometry>
        </mxCell>
        <mxCell id="kddxn9xaWUX6taKfsctK-183" value="" style="shape=tableRow;horizontal=0;startSize=0;swimlaneHead=0;swimlaneBody=0;fillColor=none;collapsible=0;dropTarget=0;points=[[0,0.5],[1,0.5]];portConstraint=eastwest;top=0;left=0;right=0;bottom=1;html=1;" parent="kddxn9xaWUX6taKfsctK-179" vertex="1">
          <mxGeometry y="60" width="210" height="30" as="geometry" />
        </mxCell>
        <mxCell id="kddxn9xaWUX6taKfsctK-184" value="PK,FK2" style="shape=partialRectangle;connectable=0;fillColor=none;top=0;left=0;bottom=0;right=0;fontStyle=1;overflow=hidden;html=1;whiteSpace=wrap;" parent="kddxn9xaWUX6taKfsctK-183" vertex="1">
          <mxGeometry width="60" height="30" as="geometry">
            <mxRectangle width="60" height="30" as="alternateBounds" />
          </mxGeometry>
        </mxCell>
        <mxCell id="kddxn9xaWUX6taKfsctK-185" value="&lt;span style=&quot;text-align: center;&quot;&gt;DEPARTMENT_CODE&lt;/span&gt;" style="shape=partialRectangle;connectable=0;fillColor=none;top=0;left=0;bottom=0;right=0;align=left;spacingLeft=6;fontStyle=5;overflow=hidden;html=1;whiteSpace=wrap;" parent="kddxn9xaWUX6taKfsctK-183" vertex="1">
          <mxGeometry x="60" width="150" height="30" as="geometry">
            <mxRectangle width="150" height="30" as="alternateBounds" />
          </mxGeometry>
        </mxCell>
        <mxCell id="kddxn9xaWUX6taKfsctK-192" value="dean faculty adminstration" style="shape=table;startSize=30;container=1;collapsible=1;childLayout=tableLayout;fixedRows=1;rowLines=0;fontStyle=1;align=center;resizeLast=1;html=1;whiteSpace=wrap;" parent="1" vertex="1">
          <mxGeometry x="-80" y="1060" width="180" height="90" as="geometry" />
        </mxCell>
        <mxCell id="kddxn9xaWUX6taKfsctK-193" value="" style="shape=tableRow;horizontal=0;startSize=0;swimlaneHead=0;swimlaneBody=0;fillColor=none;collapsible=0;dropTarget=0;points=[[0,0.5],[1,0.5]];portConstraint=eastwest;top=0;left=0;right=0;bottom=0;html=1;" parent="kddxn9xaWUX6taKfsctK-192" vertex="1">
          <mxGeometry y="30" width="180" height="30" as="geometry" />
        </mxCell>
        <mxCell id="kddxn9xaWUX6taKfsctK-194" value="PK,FK1" style="shape=partialRectangle;connectable=0;fillColor=none;top=0;left=0;bottom=0;right=0;fontStyle=1;overflow=hidden;html=1;whiteSpace=wrap;" parent="kddxn9xaWUX6taKfsctK-193" vertex="1">
          <mxGeometry width="60" height="30" as="geometry">
            <mxRectangle width="60" height="30" as="alternateBounds" />
          </mxGeometry>
        </mxCell>
        <mxCell id="kddxn9xaWUX6taKfsctK-195" value="ID" style="shape=partialRectangle;connectable=0;fillColor=none;top=0;left=0;bottom=0;right=0;align=left;spacingLeft=6;fontStyle=5;overflow=hidden;html=1;whiteSpace=wrap;" parent="kddxn9xaWUX6taKfsctK-193" vertex="1">
          <mxGeometry x="60" width="120" height="30" as="geometry">
            <mxRectangle width="120" height="30" as="alternateBounds" />
          </mxGeometry>
        </mxCell>
        <mxCell id="kddxn9xaWUX6taKfsctK-196" value="" style="shape=tableRow;horizontal=0;startSize=0;swimlaneHead=0;swimlaneBody=0;fillColor=none;collapsible=0;dropTarget=0;points=[[0,0.5],[1,0.5]];portConstraint=eastwest;top=0;left=0;right=0;bottom=1;html=1;" parent="kddxn9xaWUX6taKfsctK-192" vertex="1">
          <mxGeometry y="60" width="180" height="30" as="geometry" />
        </mxCell>
        <mxCell id="kddxn9xaWUX6taKfsctK-197" value="PK,FK2" style="shape=partialRectangle;connectable=0;fillColor=none;top=0;left=0;bottom=0;right=0;fontStyle=1;overflow=hidden;html=1;whiteSpace=wrap;" parent="kddxn9xaWUX6taKfsctK-196" vertex="1">
          <mxGeometry width="60" height="30" as="geometry">
            <mxRectangle width="60" height="30" as="alternateBounds" />
          </mxGeometry>
        </mxCell>
        <mxCell id="kddxn9xaWUX6taKfsctK-198" value="LICIENCE" style="shape=partialRectangle;connectable=0;fillColor=none;top=0;left=0;bottom=0;right=0;align=left;spacingLeft=6;fontStyle=5;overflow=hidden;html=1;whiteSpace=wrap;" parent="kddxn9xaWUX6taKfsctK-196" vertex="1">
          <mxGeometry x="60" width="120" height="30" as="geometry">
            <mxRectangle width="120" height="30" as="alternateBounds" />
          </mxGeometry>
        </mxCell>
        <mxCell id="kddxn9xaWUX6taKfsctK-205" value="department faculty" style="shape=table;startSize=30;container=1;collapsible=1;childLayout=tableLayout;fixedRows=1;rowLines=0;fontStyle=1;align=center;resizeLast=1;html=1;whiteSpace=wrap;" parent="1" vertex="1">
          <mxGeometry x="120" y="1060" width="180" height="90" as="geometry" />
        </mxCell>
        <mxCell id="kddxn9xaWUX6taKfsctK-206" value="" style="shape=tableRow;horizontal=0;startSize=0;swimlaneHead=0;swimlaneBody=0;fillColor=none;collapsible=0;dropTarget=0;points=[[0,0.5],[1,0.5]];portConstraint=eastwest;top=0;left=0;right=0;bottom=0;html=1;" parent="kddxn9xaWUX6taKfsctK-205" vertex="1">
          <mxGeometry y="30" width="180" height="30" as="geometry" />
        </mxCell>
        <mxCell id="kddxn9xaWUX6taKfsctK-207" value="PK,FK1" style="shape=partialRectangle;connectable=0;fillColor=none;top=0;left=0;bottom=0;right=0;fontStyle=1;overflow=hidden;html=1;whiteSpace=wrap;" parent="kddxn9xaWUX6taKfsctK-206" vertex="1">
          <mxGeometry width="60" height="30" as="geometry">
            <mxRectangle width="60" height="30" as="alternateBounds" />
          </mxGeometry>
        </mxCell>
        <mxCell id="kddxn9xaWUX6taKfsctK-208" value="LICIENCE" style="shape=partialRectangle;connectable=0;fillColor=none;top=0;left=0;bottom=0;right=0;align=left;spacingLeft=6;fontStyle=5;overflow=hidden;html=1;whiteSpace=wrap;" parent="kddxn9xaWUX6taKfsctK-206" vertex="1">
          <mxGeometry x="60" width="120" height="30" as="geometry">
            <mxRectangle width="120" height="30" as="alternateBounds" />
          </mxGeometry>
        </mxCell>
        <mxCell id="kddxn9xaWUX6taKfsctK-209" value="" style="shape=tableRow;horizontal=0;startSize=0;swimlaneHead=0;swimlaneBody=0;fillColor=none;collapsible=0;dropTarget=0;points=[[0,0.5],[1,0.5]];portConstraint=eastwest;top=0;left=0;right=0;bottom=1;html=1;" parent="kddxn9xaWUX6taKfsctK-205" vertex="1">
          <mxGeometry y="60" width="180" height="30" as="geometry" />
        </mxCell>
        <mxCell id="kddxn9xaWUX6taKfsctK-210" value="PK,FK2" style="shape=partialRectangle;connectable=0;fillColor=none;top=0;left=0;bottom=0;right=0;fontStyle=1;overflow=hidden;html=1;whiteSpace=wrap;" parent="kddxn9xaWUX6taKfsctK-209" vertex="1">
          <mxGeometry width="60" height="30" as="geometry">
            <mxRectangle width="60" height="30" as="alternateBounds" />
          </mxGeometry>
        </mxCell>
        <mxCell id="kddxn9xaWUX6taKfsctK-211" value="CODE" style="shape=partialRectangle;connectable=0;fillColor=none;top=0;left=0;bottom=0;right=0;align=left;spacingLeft=6;fontStyle=5;overflow=hidden;html=1;whiteSpace=wrap;" parent="kddxn9xaWUX6taKfsctK-209" vertex="1">
          <mxGeometry x="60" width="120" height="30" as="geometry">
            <mxRectangle width="120" height="30" as="alternateBounds" />
          </mxGeometry>
        </mxCell>
        <mxCell id="kddxn9xaWUX6taKfsctK-231" value="department course" style="shape=table;startSize=30;container=1;collapsible=1;childLayout=tableLayout;fixedRows=1;rowLines=0;fontStyle=1;align=center;resizeLast=1;html=1;whiteSpace=wrap;" parent="1" vertex="1">
          <mxGeometry x="320" y="1060" width="200" height="90" as="geometry" />
        </mxCell>
        <mxCell id="kddxn9xaWUX6taKfsctK-232" value="" style="shape=tableRow;horizontal=0;startSize=0;swimlaneHead=0;swimlaneBody=0;fillColor=none;collapsible=0;dropTarget=0;points=[[0,0.5],[1,0.5]];portConstraint=eastwest;top=0;left=0;right=0;bottom=0;html=1;" parent="kddxn9xaWUX6taKfsctK-231" vertex="1">
          <mxGeometry y="30" width="200" height="30" as="geometry" />
        </mxCell>
        <mxCell id="kddxn9xaWUX6taKfsctK-233" value="PK,FK1" style="shape=partialRectangle;connectable=0;fillColor=none;top=0;left=0;bottom=0;right=0;fontStyle=1;overflow=hidden;html=1;whiteSpace=wrap;" parent="kddxn9xaWUX6taKfsctK-232" vertex="1">
          <mxGeometry width="60" height="30" as="geometry">
            <mxRectangle width="60" height="30" as="alternateBounds" />
          </mxGeometry>
        </mxCell>
        <mxCell id="kddxn9xaWUX6taKfsctK-234" value="&lt;span style=&quot;text-align: center;&quot;&gt;DEPARTMENT_CODE&lt;/span&gt;" style="shape=partialRectangle;connectable=0;fillColor=none;top=0;left=0;bottom=0;right=0;align=left;spacingLeft=6;fontStyle=5;overflow=hidden;html=1;whiteSpace=wrap;" parent="kddxn9xaWUX6taKfsctK-232" vertex="1">
          <mxGeometry x="60" width="140" height="30" as="geometry">
            <mxRectangle width="140" height="30" as="alternateBounds" />
          </mxGeometry>
        </mxCell>
        <mxCell id="kddxn9xaWUX6taKfsctK-235" value="" style="shape=tableRow;horizontal=0;startSize=0;swimlaneHead=0;swimlaneBody=0;fillColor=none;collapsible=0;dropTarget=0;points=[[0,0.5],[1,0.5]];portConstraint=eastwest;top=0;left=0;right=0;bottom=1;html=1;" parent="kddxn9xaWUX6taKfsctK-231" vertex="1">
          <mxGeometry y="60" width="200" height="30" as="geometry" />
        </mxCell>
        <mxCell id="kddxn9xaWUX6taKfsctK-236" value="PK,FK2" style="shape=partialRectangle;connectable=0;fillColor=none;top=0;left=0;bottom=0;right=0;fontStyle=1;overflow=hidden;html=1;whiteSpace=wrap;" parent="kddxn9xaWUX6taKfsctK-235" vertex="1">
          <mxGeometry width="60" height="30" as="geometry">
            <mxRectangle width="60" height="30" as="alternateBounds" />
          </mxGeometry>
        </mxCell>
        <mxCell id="kddxn9xaWUX6taKfsctK-237" value="&lt;span style=&quot;text-align: center;&quot;&gt;COURSE_CODE&lt;/span&gt;" style="shape=partialRectangle;connectable=0;fillColor=none;top=0;left=0;bottom=0;right=0;align=left;spacingLeft=6;fontStyle=5;overflow=hidden;html=1;whiteSpace=wrap;" parent="kddxn9xaWUX6taKfsctK-235" vertex="1">
          <mxGeometry x="60" width="140" height="30" as="geometry">
            <mxRectangle width="140" height="30" as="alternateBounds" />
          </mxGeometry>
        </mxCell>
        <mxCell id="kddxn9xaWUX6taKfsctK-245" value="COURSE_CODE" style="ellipse;whiteSpace=wrap;html=1;fontStyle=5" parent="1" vertex="1">
          <mxGeometry x="910.5" y="-80" width="130" height="70" as="geometry" />
        </mxCell>
        <mxCell id="kddxn9xaWUX6taKfsctK-260" value="teaching" style="shape=table;startSize=30;container=1;collapsible=1;childLayout=tableLayout;fixedRows=1;rowLines=0;fontStyle=1;align=center;resizeLast=1;html=1;whiteSpace=wrap;" parent="1" vertex="1">
          <mxGeometry x="780" y="1060" width="210" height="120" as="geometry" />
        </mxCell>
        <mxCell id="kddxn9xaWUX6taKfsctK-261" value="" style="shape=tableRow;horizontal=0;startSize=0;swimlaneHead=0;swimlaneBody=0;fillColor=none;collapsible=0;dropTarget=0;points=[[0,0.5],[1,0.5]];portConstraint=eastwest;top=0;left=0;right=0;bottom=0;html=1;" parent="kddxn9xaWUX6taKfsctK-260" vertex="1">
          <mxGeometry y="30" width="210" height="30" as="geometry" />
        </mxCell>
        <mxCell id="kddxn9xaWUX6taKfsctK-262" value="PK,FK1" style="shape=partialRectangle;connectable=0;fillColor=none;top=0;left=0;bottom=0;right=0;fontStyle=1;overflow=hidden;html=1;whiteSpace=wrap;" parent="kddxn9xaWUX6taKfsctK-261" vertex="1">
          <mxGeometry width="60" height="30" as="geometry">
            <mxRectangle width="60" height="30" as="alternateBounds" />
          </mxGeometry>
        </mxCell>
        <mxCell id="kddxn9xaWUX6taKfsctK-263" value="&lt;span style=&quot;text-align: center;&quot;&gt;ID&lt;/span&gt;" style="shape=partialRectangle;connectable=0;fillColor=none;top=0;left=0;bottom=0;right=0;align=left;spacingLeft=6;fontStyle=5;overflow=hidden;html=1;whiteSpace=wrap;" parent="kddxn9xaWUX6taKfsctK-261" vertex="1">
          <mxGeometry x="60" width="150" height="30" as="geometry">
            <mxRectangle width="150" height="30" as="alternateBounds" />
          </mxGeometry>
        </mxCell>
        <mxCell id="kddxn9xaWUX6taKfsctK-264" value="" style="shape=tableRow;horizontal=0;startSize=0;swimlaneHead=0;swimlaneBody=0;fillColor=none;collapsible=0;dropTarget=0;points=[[0,0.5],[1,0.5]];portConstraint=eastwest;top=0;left=0;right=0;bottom=1;html=1;" parent="kddxn9xaWUX6taKfsctK-260" vertex="1">
          <mxGeometry y="60" width="210" height="30" as="geometry" />
        </mxCell>
        <mxCell id="kddxn9xaWUX6taKfsctK-265" value="PK,FK2" style="shape=partialRectangle;connectable=0;fillColor=none;top=0;left=0;bottom=0;right=0;fontStyle=1;overflow=hidden;html=1;whiteSpace=wrap;" parent="kddxn9xaWUX6taKfsctK-264" vertex="1">
          <mxGeometry width="60" height="30" as="geometry">
            <mxRectangle width="60" height="30" as="alternateBounds" />
          </mxGeometry>
        </mxCell>
        <mxCell id="kddxn9xaWUX6taKfsctK-266" value="&lt;span style=&quot;text-align: center;&quot;&gt;COURSE_CODE&lt;/span&gt;" style="shape=partialRectangle;connectable=0;fillColor=none;top=0;left=0;bottom=0;right=0;align=left;spacingLeft=6;fontStyle=5;overflow=hidden;html=1;whiteSpace=wrap;" parent="kddxn9xaWUX6taKfsctK-264" vertex="1">
          <mxGeometry x="60" width="150" height="30" as="geometry">
            <mxRectangle width="150" height="30" as="alternateBounds" />
          </mxGeometry>
        </mxCell>
        <mxCell id="kddxn9xaWUX6taKfsctK-270" value="" style="shape=tableRow;horizontal=0;startSize=0;swimlaneHead=0;swimlaneBody=0;fillColor=none;collapsible=0;dropTarget=0;points=[[0,0.5],[1,0.5]];portConstraint=eastwest;top=0;left=0;right=0;bottom=0;html=1;" parent="kddxn9xaWUX6taKfsctK-260" vertex="1">
          <mxGeometry y="90" width="210" height="30" as="geometry" />
        </mxCell>
        <mxCell id="kddxn9xaWUX6taKfsctK-271" value="" style="shape=partialRectangle;connectable=0;fillColor=none;top=0;left=0;bottom=0;right=0;editable=1;overflow=hidden;html=1;whiteSpace=wrap;" parent="kddxn9xaWUX6taKfsctK-270" vertex="1">
          <mxGeometry width="60" height="30" as="geometry">
            <mxRectangle width="60" height="30" as="alternateBounds" />
          </mxGeometry>
        </mxCell>
        <mxCell id="kddxn9xaWUX6taKfsctK-272" value="research contract" style="shape=partialRectangle;connectable=0;fillColor=none;top=0;left=0;bottom=0;right=0;align=left;spacingLeft=6;overflow=hidden;html=1;whiteSpace=wrap;" parent="kddxn9xaWUX6taKfsctK-270" vertex="1">
          <mxGeometry x="60" width="150" height="30" as="geometry">
            <mxRectangle width="150" height="30" as="alternateBounds" />
          </mxGeometry>
        </mxCell>
        <mxCell id="kddxn9xaWUX6taKfsctK-273" value="enrolling&amp;nbsp;" style="shape=table;startSize=30;container=1;collapsible=1;childLayout=tableLayout;fixedRows=1;rowLines=0;fontStyle=1;align=center;resizeLast=1;html=1;whiteSpace=wrap;" parent="1" vertex="1">
          <mxGeometry x="1010" y="1060" width="180" height="120" as="geometry" />
        </mxCell>
        <mxCell id="kddxn9xaWUX6taKfsctK-274" value="" style="shape=tableRow;horizontal=0;startSize=0;swimlaneHead=0;swimlaneBody=0;fillColor=none;collapsible=0;dropTarget=0;points=[[0,0.5],[1,0.5]];portConstraint=eastwest;top=0;left=0;right=0;bottom=0;html=1;" parent="kddxn9xaWUX6taKfsctK-273" vertex="1">
          <mxGeometry y="30" width="180" height="30" as="geometry" />
        </mxCell>
        <mxCell id="kddxn9xaWUX6taKfsctK-275" value="PK,FK1" style="shape=partialRectangle;connectable=0;fillColor=none;top=0;left=0;bottom=0;right=0;fontStyle=1;overflow=hidden;html=1;whiteSpace=wrap;" parent="kddxn9xaWUX6taKfsctK-274" vertex="1">
          <mxGeometry width="60" height="30" as="geometry">
            <mxRectangle width="60" height="30" as="alternateBounds" />
          </mxGeometry>
        </mxCell>
        <mxCell id="kddxn9xaWUX6taKfsctK-276" value="&lt;span style=&quot;text-align: center;&quot;&gt;ID&lt;/span&gt;" style="shape=partialRectangle;connectable=0;fillColor=none;top=0;left=0;bottom=0;right=0;align=left;spacingLeft=6;fontStyle=5;overflow=hidden;html=1;whiteSpace=wrap;" parent="kddxn9xaWUX6taKfsctK-274" vertex="1">
          <mxGeometry x="60" width="120" height="30" as="geometry">
            <mxRectangle width="120" height="30" as="alternateBounds" />
          </mxGeometry>
        </mxCell>
        <mxCell id="kddxn9xaWUX6taKfsctK-277" value="" style="shape=tableRow;horizontal=0;startSize=0;swimlaneHead=0;swimlaneBody=0;fillColor=none;collapsible=0;dropTarget=0;points=[[0,0.5],[1,0.5]];portConstraint=eastwest;top=0;left=0;right=0;bottom=1;html=1;" parent="kddxn9xaWUX6taKfsctK-273" vertex="1">
          <mxGeometry y="60" width="180" height="30" as="geometry" />
        </mxCell>
        <mxCell id="kddxn9xaWUX6taKfsctK-278" value="PK,FK2" style="shape=partialRectangle;connectable=0;fillColor=none;top=0;left=0;bottom=0;right=0;fontStyle=1;overflow=hidden;html=1;whiteSpace=wrap;" parent="kddxn9xaWUX6taKfsctK-277" vertex="1">
          <mxGeometry width="60" height="30" as="geometry">
            <mxRectangle width="60" height="30" as="alternateBounds" />
          </mxGeometry>
        </mxCell>
        <mxCell id="kddxn9xaWUX6taKfsctK-279" value="&lt;span style=&quot;text-align: center;&quot;&gt;COURSE_CODE&lt;/span&gt;" style="shape=partialRectangle;connectable=0;fillColor=none;top=0;left=0;bottom=0;right=0;align=left;spacingLeft=6;fontStyle=5;overflow=hidden;html=1;whiteSpace=wrap;" parent="kddxn9xaWUX6taKfsctK-277" vertex="1">
          <mxGeometry x="60" width="120" height="30" as="geometry">
            <mxRectangle width="120" height="30" as="alternateBounds" />
          </mxGeometry>
        </mxCell>
        <mxCell id="kddxn9xaWUX6taKfsctK-280" value="" style="shape=tableRow;horizontal=0;startSize=0;swimlaneHead=0;swimlaneBody=0;fillColor=none;collapsible=0;dropTarget=0;points=[[0,0.5],[1,0.5]];portConstraint=eastwest;top=0;left=0;right=0;bottom=0;html=1;" parent="kddxn9xaWUX6taKfsctK-273" vertex="1">
          <mxGeometry y="90" width="180" height="30" as="geometry" />
        </mxCell>
        <mxCell id="kddxn9xaWUX6taKfsctK-281" value="" style="shape=partialRectangle;connectable=0;fillColor=none;top=0;left=0;bottom=0;right=0;editable=1;overflow=hidden;html=1;whiteSpace=wrap;" parent="kddxn9xaWUX6taKfsctK-280" vertex="1">
          <mxGeometry width="60" height="30" as="geometry">
            <mxRectangle width="60" height="30" as="alternateBounds" />
          </mxGeometry>
        </mxCell>
        <mxCell id="kddxn9xaWUX6taKfsctK-282" value="status" style="shape=partialRectangle;connectable=0;fillColor=none;top=0;left=0;bottom=0;right=0;align=left;spacingLeft=6;overflow=hidden;html=1;whiteSpace=wrap;" parent="kddxn9xaWUX6taKfsctK-280" vertex="1">
          <mxGeometry x="60" width="120" height="30" as="geometry">
            <mxRectangle width="120" height="30" as="alternateBounds" />
          </mxGeometry>
        </mxCell>
        <mxCell id="kddxn9xaWUX6taKfsctK-286" value="research&amp;nbsp;&lt;br&gt;contract" style="ellipse;whiteSpace=wrap;html=1;" parent="1" vertex="1">
          <mxGeometry x="445" y="760" width="105" height="50" as="geometry" />
        </mxCell>
        <mxCell id="m78QeL1bQ9ILxJ8AS-cs-1" value="professor" style="shape=table;startSize=30;container=1;collapsible=1;childLayout=tableLayout;fixedRows=1;rowLines=0;fontStyle=1;align=center;resizeLast=1;html=1;" vertex="1" parent="1">
          <mxGeometry x="295" y="880" width="180" height="150" as="geometry" />
        </mxCell>
        <mxCell id="m78QeL1bQ9ILxJ8AS-cs-2" value="" style="shape=tableRow;horizontal=0;startSize=0;swimlaneHead=0;swimlaneBody=0;fillColor=none;collapsible=0;dropTarget=0;points=[[0,0.5],[1,0.5]];portConstraint=eastwest;top=0;left=0;right=0;bottom=1;" vertex="1" parent="m78QeL1bQ9ILxJ8AS-cs-1">
          <mxGeometry y="30" width="180" height="30" as="geometry" />
        </mxCell>
        <mxCell id="m78QeL1bQ9ILxJ8AS-cs-3" value="PK" style="shape=partialRectangle;connectable=0;fillColor=none;top=0;left=0;bottom=0;right=0;fontStyle=1;overflow=hidden;whiteSpace=wrap;html=1;" vertex="1" parent="m78QeL1bQ9ILxJ8AS-cs-2">
          <mxGeometry width="30" height="30" as="geometry">
            <mxRectangle width="30" height="30" as="alternateBounds" />
          </mxGeometry>
        </mxCell>
        <mxCell id="m78QeL1bQ9ILxJ8AS-cs-4" value="ID" style="shape=partialRectangle;connectable=0;fillColor=none;top=0;left=0;bottom=0;right=0;align=left;spacingLeft=6;fontStyle=5;overflow=hidden;whiteSpace=wrap;html=1;" vertex="1" parent="m78QeL1bQ9ILxJ8AS-cs-2">
          <mxGeometry x="30" width="150" height="30" as="geometry">
            <mxRectangle width="150" height="30" as="alternateBounds" />
          </mxGeometry>
        </mxCell>
        <mxCell id="m78QeL1bQ9ILxJ8AS-cs-5" value="" style="shape=tableRow;horizontal=0;startSize=0;swimlaneHead=0;swimlaneBody=0;fillColor=none;collapsible=0;dropTarget=0;points=[[0,0.5],[1,0.5]];portConstraint=eastwest;top=0;left=0;right=0;bottom=0;" vertex="1" parent="m78QeL1bQ9ILxJ8AS-cs-1">
          <mxGeometry y="60" width="180" height="30" as="geometry" />
        </mxCell>
        <mxCell id="m78QeL1bQ9ILxJ8AS-cs-6" value="" style="shape=partialRectangle;connectable=0;fillColor=none;top=0;left=0;bottom=0;right=0;editable=1;overflow=hidden;whiteSpace=wrap;html=1;" vertex="1" parent="m78QeL1bQ9ILxJ8AS-cs-5">
          <mxGeometry width="30" height="30" as="geometry">
            <mxRectangle width="30" height="30" as="alternateBounds" />
          </mxGeometry>
        </mxCell>
        <mxCell id="m78QeL1bQ9ILxJ8AS-cs-7" value="name" style="shape=partialRectangle;connectable=0;fillColor=none;top=0;left=0;bottom=0;right=0;align=left;spacingLeft=6;overflow=hidden;whiteSpace=wrap;html=1;" vertex="1" parent="m78QeL1bQ9ILxJ8AS-cs-5">
          <mxGeometry x="30" width="150" height="30" as="geometry">
            <mxRectangle width="150" height="30" as="alternateBounds" />
          </mxGeometry>
        </mxCell>
        <mxCell id="m78QeL1bQ9ILxJ8AS-cs-8" value="" style="shape=tableRow;horizontal=0;startSize=0;swimlaneHead=0;swimlaneBody=0;fillColor=none;collapsible=0;dropTarget=0;points=[[0,0.5],[1,0.5]];portConstraint=eastwest;top=0;left=0;right=0;bottom=0;" vertex="1" parent="m78QeL1bQ9ILxJ8AS-cs-1">
          <mxGeometry y="90" width="180" height="30" as="geometry" />
        </mxCell>
        <mxCell id="m78QeL1bQ9ILxJ8AS-cs-9" value="" style="shape=partialRectangle;connectable=0;fillColor=none;top=0;left=0;bottom=0;right=0;editable=1;overflow=hidden;whiteSpace=wrap;html=1;" vertex="1" parent="m78QeL1bQ9ILxJ8AS-cs-8">
          <mxGeometry width="30" height="30" as="geometry">
            <mxRectangle width="30" height="30" as="alternateBounds" />
          </mxGeometry>
        </mxCell>
        <mxCell id="m78QeL1bQ9ILxJ8AS-cs-10" value="phone" style="shape=partialRectangle;connectable=0;fillColor=none;top=0;left=0;bottom=0;right=0;align=left;spacingLeft=6;overflow=hidden;whiteSpace=wrap;html=1;" vertex="1" parent="m78QeL1bQ9ILxJ8AS-cs-8">
          <mxGeometry x="30" width="150" height="30" as="geometry">
            <mxRectangle width="150" height="30" as="alternateBounds" />
          </mxGeometry>
        </mxCell>
        <mxCell id="m78QeL1bQ9ILxJ8AS-cs-11" value="" style="shape=tableRow;horizontal=0;startSize=0;swimlaneHead=0;swimlaneBody=0;fillColor=none;collapsible=0;dropTarget=0;points=[[0,0.5],[1,0.5]];portConstraint=eastwest;top=0;left=0;right=0;bottom=0;" vertex="1" parent="m78QeL1bQ9ILxJ8AS-cs-1">
          <mxGeometry y="120" width="180" height="30" as="geometry" />
        </mxCell>
        <mxCell id="m78QeL1bQ9ILxJ8AS-cs-12" value="" style="shape=partialRectangle;connectable=0;fillColor=none;top=0;left=0;bottom=0;right=0;editable=1;overflow=hidden;whiteSpace=wrap;html=1;" vertex="1" parent="m78QeL1bQ9ILxJ8AS-cs-11">
          <mxGeometry width="30" height="30" as="geometry">
            <mxRectangle width="30" height="30" as="alternateBounds" />
          </mxGeometry>
        </mxCell>
        <mxCell id="m78QeL1bQ9ILxJ8AS-cs-13" value="research contract" style="shape=partialRectangle;connectable=0;fillColor=none;top=0;left=0;bottom=0;right=0;align=left;spacingLeft=6;overflow=hidden;whiteSpace=wrap;html=1;" vertex="1" parent="m78QeL1bQ9ILxJ8AS-cs-11">
          <mxGeometry x="30" width="150" height="30" as="geometry">
            <mxRectangle width="150" height="30" as="alternateBounds" />
          </mxGeometry>
        </mxCell>
      </root>
    </mxGraphModel>
  </diagram>
</mxfile>
